<svg width="65" height="73" viewBox="0 0 65 73" fill="none" xmlns="http://www.w3.org/2000/svg">
<g clip-path="url(#clip0_126_3631)">
<path d="M41.9792 42.5833H39.8396L39.0812 41.7621C41.7354 38.2946 43.3333 33.7929 43.3333 28.8958C43.3333 17.9763 35.4521 9.125 25.7292 9.125C16.0063 9.125 8.125 17.9763 8.125 28.8958C8.125 39.8154 16.0063 48.6667 25.7292 48.6667C30.0896 48.6667 34.0979 46.8721 37.1854 43.8913L37.9167 44.7429V47.1458L51.4583 62.3238L55.4937 57.7917L41.9792 42.5833V42.5833ZM25.7292 42.5833C18.9854 42.5833 13.5417 36.4696 13.5417 28.8958C13.5417 21.3221 18.9854 15.2083 25.7292 15.2083C32.4729 15.2083 37.9167 21.3221 37.9167 28.8958C37.9167 36.4696 32.4729 42.5833 25.7292 42.5833Z" fill="white"/>
</g>
<defs>
<clipPath id="clip0_126_3631">
<rect width="65" height="73" fill="white"/>
</clipPath>
</defs>
</svg>
